HIERARCHY
ROOT Hips
{
  OFFSET 90.7885 88.945 -76.2838
  CHANNELS 6 Xposition Yposition Zposition Zrotation Xrotation Yrotation
  JOINT LeftUpLeg
  {
    OFFSET 8.64259 1.95398 -2.38835
    CHANNELS 3 Zrotation Xrotation Yrotation
    JOINT LeftLeg
    {
      OFFSET 43.7702 0 0
      CHANNELS 3 Zrotation Xrotation Yrotation
      JOINT LeftFoot
      {
        OFFSET 40.6238 0 0
        CHANNELS 3 Zrotation Xrotation Yrotation
        JOINT LeftToeBase
        {
          OFFSET 12.7242 0 0
          CHANNELS 3 Zrotation Xrotation Yrotation
          End Site
          {
            OFFSET 0 0 0
          }
        }
      }
    }
  }
  JOINT RightUpLeg
  {
    OFFSET -8.2249 1.95398 -2.59336
    CHANNELS 3 Zrotation Xrotation Yrotation
    JOINT RightLeg
    {
      OFFSET 43.5653 0 0
      CHANNELS 3 Zrotation Xrotation Yrotation
      JOINT RightFoot
      {
        OFFSET 40.6238 0 0
        CHANNELS 3 Zrotation Xrotation Yrotation
        JOINT RightToeBase
        {
          OFFSET 12.7242 0 0
          CHANNELS 3 Zrotation Xrotation Yrotation
          End Site
          {
            OFFSET 0 0 0
          }
        }
      }
    }
  }
  JOINT Spine
  {
    OFFSET 0.165834 0.87714 6.61349
    CHANNELS 3 Zrotation Xrotation Yrotation
    JOINT Spine1
    {
      OFFSET 7.38963 1.71661e-005 0
      CHANNELS 3 Zrotation Xrotation Yrotation
      JOINT Spine2
      {
        OFFSET 11.9445 1.14441e-005 0
        CHANNELS 3 Zrotation Xrotation Yrotation
        JOINT Spine3
        {
          OFFSET 14.7254 4.19617e-005 0
          CHANNELS 3 Zrotation Xrotation Yrotation
          JOINT Spine4
          {
            OFFSET 10.9679 0 0
            CHANNELS 3 Zrotation Xrotation Yrotation
            JOINT RightShoulder
            {
              OFFSET 2.46616 -1.6653 3.69651
              CHANNELS 3 Zrotation Xrotation Yrotation
              JOINT RightArm
              {
                OFFSET 13.0012 0 0
                CHANNELS 3 Zrotation Xrotation Yrotation
                JOINT RightForeArm
                {
                  OFFSET 28.7848 1.52588e-005 0
                  CHANNELS 3 Zrotation Xrotation Yrotation
                  JOINT RightHand
                  {
                    OFFSET 26.5688 1.52588e-005 0
                    CHANNELS 3 Zrotation Xrotation Yrotation
                    End Site
                    {
                      OFFSET 0 0 0
                    }
                  }
                }
              }
            }
            JOINT LeftShoulder
            {
              OFFSET 2.38034 -1.29275 -3.7523
              CHANNELS 3 Zrotation Xrotation Yrotation
              JOINT LeftArm
              {
                OFFSET 16.3182 6.10352e-005 0
                CHANNELS 3 Zrotation Xrotation Yrotation
                JOINT LeftForeArm
                {
                  OFFSET 27.0901 0 0
                  CHANNELS 3 Zrotation Xrotation Yrotation
                  JOINT LeftHand
                  {
                    OFFSET 24.5451 1.52588e-005 0
                    CHANNELS 3 Zrotation Xrotation Yrotation
                    End Site
                    {
                      OFFSET 0 0 0
                    }
                  }
                }
              }
            }
            JOINT Neck
            {
              OFFSET 5.0226 -0.0266342 0
              CHANNELS 3 Zrotation Xrotation Yrotation
              JOINT Head
              {
                OFFSET 6.69363 2.86102e-005 0
                CHANNELS 3 Zrotation Xrotation Yrotation
                End Site
                {
                  OFFSET 0 0 0
                }
              }
            }
          }
        }
      }
    }
  }
}
MOTION
Frames:	15
Frame Time:	0.0416667
-13.6623 89.8783 -14.3542 -105.063 44.4238 -81.6929 -173.602 14.2156 90.1222 -58.647 10.1904 0.521327 88.3167 11.754 -2.29147 25.8089 -0.27761 0.940722 -179.602 35.6108 82.7584 -90.5972 -6.14449 -2.50903 75.3993 -8.39226 -2.89788 12.9073 -1.10079 4.70931 0.405268 8.47215 -89.8308 9.93088 0.884623 0.262559 -1.73975 0.895307 0.223364 -24.277 0.764804 0.516301 -4.26436 0.764799 0.516299 90.3276 -31.8126 -105.443 32.0984 9.91693 4.65377 -35.8293 -0.184633 -108.28 -27.7105 0.884975 -17.7594 -87.5211 -49.7778 82.4062 -8.46977 31.9889 2.20646 36.3303 -22.3247 -98.3984 -6.74577 0.386428 -16.8297 11.8329 33.6217 1.81381 -17.1346 30.9689 14.5889 
-7.5635 90.4095 -8.17821 -104.934 44.4872 -82.7057 -174.664 19.5821 88.005 -55.8306 10.9886 0.181857 80.6119 9.25306 1.08887 24.4818 1.91844 -1.86567 178.242 26.8392 81.5586 -97.2718 -4.02489 -2.20582 73.5684 -7.68897 -3.42308 10.8161 -1.43286 5.44442 1.07537 8.40969 -89.8602 10.0549 2.2067 0.0941503 -1.61423 2.2087 -0.00310394 -24.1631 2.07633 0.75329 -4.15044 2.07633 0.753283 91.2794 -27.4751 -105.122 30.3863 14.1885 -1.35298 -34.0355 0.0467081 -110.595 -28.832 1.0193 -17.6553 -87.7469 -51.2983 82.3309 -17.3182 28.7017 22.064 33.1891 -23.3763 -102.687 -6.84072 0.472545 -18.7272 7.23671 33.525 6.12337 -13.9563 30.7694 12.9811 
-1.7881 93.0731 -2.90109 -108.647 44.2965 -79.6059 -175.756 17.4372 88.7831 -44.9407 12.8435 -0.0554514 70.3795 4.98722 1.90035 21.443 1.12282 -0.233448 176.148 11.1954 81.9653 -92.5862 -10.3547 -2.79326 65.8019 -3.99425 -4.77299 10.2548 -1.79832 6.076 1.83787 8.55757 -89.9531 9.76534 3.68482 -0.198872 -1.90044 3.6725 -0.361086 -24.4757 3.57401 0.919209 -4.4631 3.57401 0.919197 90.9598 -24.2231 -107.114 27.9746 18.6619 -3.97792 -32.7891 -0.857764 -112.014 -27.8494 0.887548 -17.4258 -85.4931 -49.0506 85.3644 -22.1138 26.9859 35.8927 29.986 -25.3924 -107.73 -5.06954 0.265842 -19.3474 -0.112692 31.7215 7.18922 -11.7676 29.5354 14.0701 
4.34357 96.1437 2.59805 -109.726 43.7739 -79.1931 -177.587 13.6694 88.9218 -26.212 13.9498 -0.356103 52.4589 -2.48674 0.0569411 22.7228 1.82675 -1.31475 174.399 -1.43624 82.4957 -80.317 -19.1724 -4.13321 59.3346 -0.424658 -4.69596 12.5028 -2.78894 7.55004 2.47826 8.43433 -89.9338 10.0181 4.96906 -0.278903 -1.64339 4.95196 -0.497878 -24.2519 4.82259 1.23099 -4.23929 4.82261 1.23098 91.9523 -19.408 -106.981 27.4323 16.8878 -5.36165 -31.867 -1.11104 -111.798 -29.7789 0.760367 -15.4979 -84.118 -44.6546 86.9261 -25.8567 26.6054 46.7823 26.9772 -27.0333 -112.063 -5.91733 0.444968 -21.5805 -6.51097 30.1439 7.49914 -10.7474 28.6299 13.4282 
11.4718 97.1503 8.80971 -105.119 42.3818 -83.0168 -178.747 18.2849 88.7495 -19.0115 21.4051 -0.262484 53.0491 -2.14263 -2.55807 16.4621 -3.88145 6.38076 173.905 -7.38791 84.8575 -68.3939 -19.1772 -4.58603 61.6495 -1.44047 -1.71301 15.3512 -2.88005 7.58208 2.58398 8.08408 -89.6742 10.7116 5.29594 0.160554 -0.948518 5.29785 -0.0733606 -23.5636 5.00218 1.74879 -3.55094 5.00221 1.74879 93.3631 -14.9458 -105.639 25.7404 13.3921 -7.48182 -31.5474 -0.777763 -112.412 -31.0954 0.952074 -15.4568 -85.6393 -39.755 83.6445 -28.4371 20.2627 54.654 28.0161 -27.4308 -114.414 -6.80875 0.683039 -24.1006 -4.26979 30.3929 6.65373 -13.0636 28.6604 12.4812 
19.5227 96.4741 15.7211 -98.5545 40.647 -87.5448 -178.69 27.827 88.78 -25.4912 24.4071 -0.265062 55.9551 -1.19435 -0.779569 19.1244 -2.91131 5.16217 175.137 -6.05209 87.9287 -60.2681 -17.1744 -4.45769 66.9291 -3.87928 -1.99227 16.6256 -2.8153 7.40509 2.36503 7.8126 -89.478 11.2448 4.94974 0.55053 -0.416741 4.96915 0.331603 -23.0177 4.55499 2.01564 -3.00503 4.55501 2.01565 94.0106 -13.0497 -104.835 22.3564 11.9921 -9.25945 -26.0363 -2.20067 -114.666 -33.4631 1.86608 -16.4387 -86.3864 -38.4277 82.1261 -27.3173 19.2971 51.756 28.3422 -26.501 -113.637 -5.11193 0.387161 -24.1487 1.44426 32.3143 9.08258 -13.5929 29.8894 10.3739 
27.5617 95.0103 22.8285 -96.3778 39.2672 -89.504 -176.546 34.4642 88.1219 -41.0203 19.2485 -0.962622 63.3102 1.80235 -1.64343 21.7229 -1.36741 2.95122 176.067 -3.3503 89.0142 -55.7657 -17.6151 -5.12022 69.994 -5.31315 -3.9758 15.7128 -3.25067 8.22374 2.10391 7.76589 -89.4283 11.3349 4.4531 0.693559 -0.328536 4.47929 0.496504 -22.9149 4.03847 2.00185 -2.90224 4.03848 2.00185 93.3149 -15.7939 -105.352 20.7873 9.55948 -5.84791 -26.944 -0.463902 -115.929 -31.1626 1.89114 -17.5609 -86.4049 -41.4711 82.6847 -22.4927 21.3237 40.713 27.6032 -24.5816 -111.809 -5.2214 0.382702 -22.8173 3.59728 34.5705 11.3303 -14.4765 31.5772 9.90235 
35.4646 92.6614 30.2397 -96.8781 39.5633 -90.5601 -171.959 37.9683 86.2013 -61.0742 13.8304 -1.30518 72.1385 5.39574 -0.603438 22.5517 -0.594199 1.78135 176.677 -0.825351 87.9787 -53.5674 -17.2805 -6.55092 76.0946 -8.74915 -6.12398 30.3498 -4.33381 10.3931 1.78417 7.95417 -89.3527 10.9534 3.85173 0.922253 -0.712021 3.88857 0.751589 -23.2821 3.39635 2.03834 -3.26945 3.39634 2.03833 92.4162 -18.8727 -106.123 22.3053 4.81044 -1.29701 -30.3389 3.48037 -112.33 -32.5135 1.03261 -14.9673 -87.5944 -45.6314 81.5356 -16.6791 18.5896 28.2496 25.2959 -20.7435 -109.232 -2.23499 -0.112137 -19.2306 4.97663 37.0937 12.9785 -15.9191 33.6363 9.65429 
43.6038 90.0291 37.7719 -97.1418 40.8711 -91.7677 -166.356 38.3102 84.7613 -78.6326 10.5707 -0.0947472 75.3347 6.71097 0.756977 21.9247 0.326595 0.72111 177.674 4.27834 85.7253 -56.0928 -16.274 -7.52019 92.3449 -16.5178 -2.26256 31.7543 -2.55221 6.01239 1.37435 8.05245 -89.3701 10.7563 3.0272 0.971823 -0.911361 3.06701 0.837533 -23.4656 2.59515 1.83713 -3.45299 2.59513 1.83712 92.6128 -20.5977 -104.92 26.3304 0.207449 3.06103 -29.2782 2.95328 -108.231 -30.7585 1.9788 -18.7716 -88.0241 -53.2525 82.2585 -7.26182 15.6559 14.9038 21.9102 -17.7096 -108.362 -2.75641 -0.0385803 -19.5495 2.21231 39.3091 19.7331 -11.9344 35.6639 7.10145 
51.5765 87.7724 44.6921 -94.4119 41.3914 -91.7658 -163.221 38.1317 87.7172 -92.1195 12.4159 2.67149 73.0203 6.07404 2.92093 24.0129 1.78275 -1.5862 179.141 16.861 87.0784 -62.4826 -12.2202 -5.70647 98.7109 -18.3418 1.74266 23.1223 -3.20735 7.86088 0.917471 7.91796 -89.7014 11.0355 1.96486 0.405439 -0.634012 1.98079 0.318533 -23.1786 1.75215 0.977375 -3.16596 1.75213 0.977376 92.7398 -21.8751 -104.101 32.3756 -2.63493 10.5316 -39.3836 1.56433 -105.069 -29.19 -0.119716 -12.5435 -86.2963 -60.3246 85.715 0.577311 11.4481 -1.87542 24.2263 -17.7143 -108.442 -6.85046 0.52879 -20.1102 3.01736 41.6573 25.0836 -10.6375 37.3174 4.56038 
58.413 87.2423 50.3237 -94.4332 40.0589 -89.6947 -165.268 30.6181 94.0782 -97.5931 17.2982 5.06118 68.6506 4.468 4.42669 25.0654 3.63325 -4.32206 179.085 25.6068 88.9993 -65.8343 -14.3478 -4.06883 91.0749 -15.5312 -0.893077 21.6449 -2.80405 7.11202 0.302222 7.94703 -89.8767 10.9787 0.658676 0.18141 -0.69212 0.666027 0.152236 -23.2281 0.573708 0.370989 -3.21541 0.573701 0.370983 93.6441 -23.042 -101.617 41.7484 -3.7939 20.9868 -37.7651 2.54039 -98.675 -28.7445 0.633156 -15.5676 -85.2942 -59.1136 86.9218 -0.389885 5.98955 -15.0289 24.379 -16.8962 -109.95 -9.03233 0.871676 -20.8392 5.93889 43.1849 23.9824 -12.6227 38.4121 4.25744 
64.1835 88.3465 55.0883 -99.5594 38.0882 -86.0032 -167.565 13.9688 100.001 -92.6926 23.8157 6.58548 64.9055 3.03251 6.27088 25.5768 4.09598 -5.10058 178.507 25.6477 89.2374 -62.639 -16.1242 -3.80294 84.1505 -12.5246 -2.46631 20.3625 -2.75903 7.09227 -0.51325 8.26181 -89.919 10.3521 -0.985421 0.246358 -1.31856 -0.973602 0.289482 -23.8565 -1.0139 -0.0612157 -3.8439 -1.0139 -0.0612253 93.9326 -23.2607 -100.887 48.5929 -3.89145 31.6549 -34.6739 2.79217 -94.5414 -27.3227 1.62901 -19.8516 -87.0228 -55.0654 83.9947 -2.67076 1.73122 -22.975 23.2866 -15.8586 -111.378 -7.04814 0.663255 -22.2897 -0.0868431 41.2495 23.6467 -13.011 37.5179 7.71521 
69.9843 91.0358 60.0009 -102.985 36.5144 -82.5458 -169.426 -1.55184 102.481 -79.2668 26.4009 8.13844 61.1992 1.33359 4.25923 28.4699 1.66697 -2.35059 178.234 23.7145 90.5622 -52.9758 -17.0776 -3.83185 72.8164 -6.90127 -2.89081 20.7627 -3.02274 7.59458 -1.26569 8.43162 -89.9306 10.0159 -2.49068 0.343327 -1.65277 -2.47314 0.452673 -24.2066 -2.47864 -0.42156 -4.194 -2.47864 -0.42157 94.3055 -23.6367 -99.9388 53.2898 -5.24933 39.6852 -33.9266 5.61609 -90.6359 -23.3741 1.94425 -23.5301 -86.6065 -46.6838 83.2711 -3.52 0.268016 -28.8213 25.6282 -16.8725 -111.603 -5.31413 0.306291 -19.7727 -5.98749 38.7319 21.5619 -14.156 35.9878 11.1106 
76.3801 94.5877 65.9516 -103.604 37.0526 -81.5378 -171.465 -11.8009 99.9711 -64.3325 28.9085 9.00747 60.6022 1.05001 2.86766 29.6034 0.888685 -1.47557 178.654 21.6701 90.8147 -36.8133 -20.7128 -4.77705 56.1968 0.995789 0.58647 20.3242 -1.91069 5.44149 -1.67701 8.41565 -89.8853 10.0528 -3.28972 0.500949 -1.61419 -3.26448 0.645388 -24.1824 -3.28801 -0.512011 -4.16977 -3.28802 -0.512018 93.2322 -24.3033 -102.096 54.9957 -4.16272 46.0491 -30.4974 6.89585 -89.6148 -20.9718 2.44503 -27.1367 -85.5142 -37.5961 83.4847 -4.24825 0.220749 -31.7999 27.5255 -17.5544 -111.084 -5.84944 0.335978 -18.3521 -11.489 35.1576 19.751 -14.4828 33.3735 12.9456 
82.8472 96.7753 72.7679 -101.11 38.1559 -82.4591 -173.633 -14.6152 96.6369 -53.0279 28.5519 8.3716 63.6798 2.41846 4.30507 24.6232 1.40781 -1.20396 178.223 20.2303 90.161 -22.2101 -28.5243 -5.33286 58.9739 -0.29478 0.279128 16.3628 -0.877741 3.91665 -1.65329 8.1007 -90.03 10.6794 -3.3063 0.242224 -0.987364 -3.29244 0.387656 -23.5551 -3.22606 -0.763723 -3.54245 -3.22609 -0.763728 91.4632 -24.0632 -106.071 53.134 1.34851 49.6956 -32.7272 0.406467 -90.2118 -22.4087 2.42852 -27.5315 -84.6318 -33.2948 84.2899 -1.82207 2.8488 -35.1495 26.8792 -17.3204 -108.931 -3.86171 0.0901251 -18.2069 -15.5003 30.5761 18.1005 -14.8341 29.5982 11.9577 
